<?xml version="1.0" encoding="UTF-8" standalone="no"?>
<!-- Created with Inkscape (http://www.inkscape.org/) -->

<svg
   xmlns:dc="http://purl.org/dc/elements/1.1/"
   xmlns:cc="http://creativecommons.org/ns#"
   xmlns:rdf="http://www.w3.org/1999/02/22-rdf-syntax-ns#"
   xmlns:svg="http://www.w3.org/2000/svg"
   xmlns="http://www.w3.org/2000/svg"
   xmlns:sodipodi="http://sodipodi.sourceforge.net/DTD/sodipodi-0.dtd"
   xmlns:inkscape="http://www.inkscape.org/namespaces/inkscape"
   width="512"
   height="512"
   viewBox="0 0 135.46666 135.46667"
   version="1.1"
   id="svg8"
   inkscape:version="0.92.1 r15371"
   sodipodi:docname="bs-logo.svg"
   inkscape:export-filename="D:\Development\bill-sprinters\bs-logo-png.png"
   inkscape:export-xdpi="96"
   inkscape:export-ydpi="96">
  <defs
     id="defs2" />
  <sodipodi:namedview
     id="base"
     pagecolor="#ffffff"
     bordercolor="#666666"
     borderopacity="1.0"
     inkscape:pageopacity="0.0"
     inkscape:pageshadow="2"
     inkscape:zoom="1.28"
     inkscape:cx="371.01426"
     inkscape:cy="180.56019"
     inkscape:document-units="px"
     inkscape:current-layer="layer1"
     showgrid="true"
     units="px"
     inkscape:window-width="1600"
     inkscape:window-height="837"
     inkscape:window-x="-8"
     inkscape:window-y="-8"
     inkscape:window-maximized="1"
     inkscape:snap-bbox="true"
     inkscape:bbox-paths="true"
     inkscape:bbox-nodes="true"
     inkscape:snap-bbox-edge-midpoints="true"
     inkscape:snap-bbox-midpoints="true"
     inkscape:snap-smooth-nodes="true"
     inkscape:snap-midpoints="true"
     inkscape:snap-object-midpoints="true"
     inkscape:snap-center="true"
     inkscape:snap-intersection-paths="true"
     inkscape:object-paths="true"
     showguides="false">
    <inkscape:grid
       type="xygrid"
       id="grid4493" />
  </sodipodi:namedview>
  <metadata
     id="metadata5">
    <rdf:RDF>
      <cc:Work
         rdf:about="">
        <dc:format>image/svg+xml</dc:format>
        <dc:type
           rdf:resource="http://purl.org/dc/dcmitype/StillImage" />
        <dc:title></dc:title>
      </cc:Work>
    </rdf:RDF>
  </metadata>
  <g
     inkscape:label="Layer 1"
     inkscape:groupmode="layer"
     id="layer1"
     transform="translate(0,-161.53331)">
    <path
       style="fill:#000000;fill-opacity:0.8;stroke:none;stroke-width:0.26458332px;stroke-linecap:butt;stroke-linejoin:miter;stroke-opacity:1"
       d="m 150.8125,169.99998 v 52.91666 c 0,68.79167 58.20833,68.79167 58.20833,68.79167 0,0 58.20834,0 58.20834,-68.79167 v -52.91666 z"
       id="path4505"
       inkscape:connector-curvature="0"
       sodipodi:nodetypes="cscscc" />
    <path
       style="fill:#ffffff;fill-opacity:1;stroke:none;stroke-width:0.26458332px;stroke-linecap:butt;stroke-linejoin:miter;stroke-opacity:1"
       d="M 177.27083,185.87498 H 166.6875 l 5.29167,58.20833 10.58333,21.16667 21.16666,10.58333 5.29167,-42.33333 -15.875,-5.29167 10.58333,-5.29167 -5.29166,-37.04166 z m 5.29167,15.875 h 10.58333 v 15.875 l -10.58333,5.29166 z m 0,37.04166 h 10.58333 v 21.16667 z"
       id="path4495"
       inkscape:connector-curvature="0"
       sodipodi:nodetypes="ccccccccccccccccccc" />
    <path
       style="fill:#ffffff;fill-opacity:1;stroke:none;stroke-width:0.26458332px;stroke-linecap:butt;stroke-linejoin:miter;stroke-opacity:1"
       d="m 251.35417,185.87498 h -42.33334 l 5.29167,26.45833 21.16666,31.75 -10.58333,15.875 v -15.875 l -5.29167,-5.29167 -5.29166,37.04167 10.58333,-5.29167 15.87501,-15.875 5.29166,-15.875 -15.875,-42.33333 h 10.58334 l 5.29166,21.16667 5.29167,-5.29167 z"
       id="path4503"
       inkscape:connector-curvature="0"
       sodipodi:nodetypes="cccccccccccccccc" />
    <path
       style="opacity:1;vector-effect:none;fill:#333333;fill-opacity:1;fill-rule:evenodd;stroke:none;stroke-width:1.00157475;stroke-linecap:round;stroke-linejoin:miter;stroke-miterlimit:4;stroke-dasharray:none;stroke-dashoffset:0;stroke-opacity:1;paint-order:normal"
       d="M 30 32 L 30 257 L 30 262 L 30.177734 262 A 225 225 0 0 0 255 482 A 225 225 0 0 0 479.75 262 L 480 262 L 480 257 L 480 32 L 255 32 L 30 32 z "
       transform="matrix(0.26458333,0,0,0.26458333,0,161.53331)"
       id="path5048" />
    <path
       style="opacity:1;vector-effect:none;fill:#ffffff;fill-opacity:1;fill-rule:evenodd;stroke:none;stroke-width:1.00157475;stroke-linecap:round;stroke-linejoin:miter;stroke-miterlimit:4;stroke-dasharray:none;stroke-dashoffset:0;stroke-opacity:1;paint-order:normal"
       d="M 160 62 L 160 242 A 90.000001 90.000008 0 0 0 250 152 A 90.000001 90.000008 0 0 0 160 62 z "
       transform="matrix(0.26458333,0,0,0.26458333,0,161.53331)"
       id="path5054" />
    <path
       style="opacity:1;vector-effect:none;fill:#ffffff;fill-opacity:1;fill-rule:evenodd;stroke:none;stroke-width:1.00157464;stroke-linecap:round;stroke-linejoin:miter;stroke-miterlimit:4;stroke-dasharray:none;stroke-dashoffset:0;stroke-opacity:1;paint-order:normal"
       d="M 350 62 A 90.000001 90.000001 0 0 0 260 152 A 90.000001 90.000001 0 0 0 350 242 L 350 62 z "
       transform="matrix(0.26458333,0,0,0.26458333,0,161.53331)"
       id="ellipse5056" />
    <path
       style="opacity:1;vector-effect:none;fill:#ffffff;fill-opacity:1;fill-rule:evenodd;stroke:none;stroke-width:1.00157475;stroke-linecap:round;stroke-linejoin:miter;stroke-miterlimit:4;stroke-dasharray:none;stroke-dashoffset:0;stroke-opacity:1;paint-order:normal"
       d="M 160 252 L 160 432 A 90.000001 90.000008 0 0 0 250 342 A 90.000001 90.000008 0 0 0 160 252 z "
       transform="matrix(0.26458333,0,0,0.26458333,0,161.53331)"
       id="ellipse5062" />
    <path
       style="opacity:1;vector-effect:none;fill:#ffffff;fill-opacity:1;fill-rule:evenodd;stroke:none;stroke-width:1.00157464;stroke-linecap:round;stroke-linejoin:miter;stroke-miterlimit:4;stroke-dasharray:none;stroke-dashoffset:0;stroke-opacity:1;paint-order:normal"
       d="M 350 252 L 350 432 A 90.000001 90.000001 0 0 0 440 342 A 90.000001 90.000001 0 0 0 350 252 z "
       transform="matrix(0.26458333,0,0,0.26458333,0,161.53331)"
       id="circle5064" />
    <circle
       r="59.53125"
       cy="430.61426"
       cx="67.46875"
       id="circle5120"
       style="opacity:1;vector-effect:none;fill:#333333;fill-opacity:1;fill-rule:evenodd;stroke:none;stroke-width:0.26499999;stroke-linecap:round;stroke-linejoin:miter;stroke-miterlimit:4;stroke-dasharray:none;stroke-dashoffset:0;stroke-opacity:1;paint-order:normal" />
    <rect
       y="371.08316"
       x="7.9375"
       height="60.854164"
       width="119.0625"
       id="rect5122"
       style="opacity:1;vector-effect:none;fill:#333333;fill-opacity:1;fill-rule:evenodd;stroke:none;stroke-width:0.26499999;stroke-linecap:round;stroke-linejoin:miter;stroke-miterlimit:4;stroke-dasharray:none;stroke-dashoffset:0;stroke-opacity:1;paint-order:normal" />
    <ellipse
       ry="23.812502"
       rx="23.8125"
       cy="402.83307"
       cx="42.333332"
       id="ellipse5124"
       style="opacity:1;vector-effect:none;fill:#ffffff;fill-opacity:1;fill-rule:evenodd;stroke:none;stroke-width:0.26499999;stroke-linecap:round;stroke-linejoin:miter;stroke-miterlimit:4;stroke-dasharray:none;stroke-dashoffset:0;stroke-opacity:1;paint-order:normal" />
    <circle
       r="23.8125"
       style="opacity:1;vector-effect:none;fill:#ffffff;fill-opacity:1;fill-rule:evenodd;stroke:none;stroke-width:0.26499996;stroke-linecap:round;stroke-linejoin:miter;stroke-miterlimit:4;stroke-dasharray:none;stroke-dashoffset:0;stroke-opacity:1;paint-order:normal"
       id="circle5126"
       cx="92.604164"
       cy="402.83307" />
    <ellipse
       style="opacity:1;vector-effect:none;fill:#ffffff;fill-opacity:1;fill-rule:evenodd;stroke:none;stroke-width:0.26499999;stroke-linecap:round;stroke-linejoin:miter;stroke-miterlimit:4;stroke-dasharray:none;stroke-dashoffset:0;stroke-opacity:1;paint-order:normal"
       id="ellipse5128"
       cx="42.333332"
       cy="453.10376"
       rx="23.8125"
       ry="23.812502" />
    <circle
       cy="453.10376"
       cx="92.604164"
       id="circle5130"
       style="opacity:1;vector-effect:none;fill:#ffffff;fill-opacity:1;fill-rule:evenodd;stroke:none;stroke-width:0.26499996;stroke-linecap:round;stroke-linejoin:miter;stroke-miterlimit:4;stroke-dasharray:none;stroke-dashoffset:0;stroke-opacity:1;paint-order:normal"
       r="23.8125" />
  </g>
</svg>
