<?xml version="1.0" encoding="UTF-8" standalone="no"?>
<!-- Created with Inkscape (http://www.inkscape.org/) -->

<svg
   width="800"
   height="800"
   viewBox="0 0 211.66666 211.66667"
   version="1.1"
   id="svg5"
   inkscape:version="1.2-alpha1 (b6a15bbbed, 2022-02-23)"
   sodipodi:docname="logo-2.svg"
   xmlns:inkscape="http://www.inkscape.org/namespaces/inkscape"
   xmlns:sodipodi="http://sodipodi.sourceforge.net/DTD/sodipodi-0.dtd"
   xmlns:xlink="http://www.w3.org/1999/xlink"
   xmlns="http://www.w3.org/2000/svg"
   xmlns:svg="http://www.w3.org/2000/svg">
  <sodipodi:namedview
     id="namedview7"
     pagecolor="#ffffff"
     bordercolor="#666666"
     borderopacity="1.0"
     inkscape:pageshadow="2"
     inkscape:pageopacity="0.0"
     inkscape:pagecheckerboard="0"
     inkscape:deskcolor="#d1d1d1"
     inkscape:document-units="px"
     showgrid="false"
     inkscape:zoom="0.2926452"
     inkscape:cx="763.72344"
     inkscape:cy="222.11196"
     inkscape:window-width="1600"
     inkscape:window-height="837"
     inkscape:window-x="-8"
     inkscape:window-y="-8"
     inkscape:window-maximized="1"
     inkscape:current-layer="layer1" />
  <defs
     id="defs2">
    <linearGradient
       inkscape:collect="always"
       id="linearGradient64641">
      <stop
         style="stop-color:#0f48a7;stop-opacity:1;"
         offset="0"
         id="stop64639" />
      <stop
         style="stop-color:#04a2e7;stop-opacity:1;"
         offset="1"
         id="stop64637" />
    </linearGradient>
    <linearGradient
       inkscape:collect="always"
       id="linearGradient63011">
      <stop
         style="stop-color:#ed9d24;stop-opacity:1;"
         offset="0"
         id="stop63007" />
      <stop
         style="stop-color:#c35e14;stop-opacity:1;"
         offset="1"
         id="stop63009" />
    </linearGradient>
    <linearGradient
       inkscape:collect="always"
       id="linearGradient40508">
      <stop
         style="stop-color:#c35e14;stop-opacity:1;"
         offset="0"
         id="stop40504" />
      <stop
         style="stop-color:#ed9d24;stop-opacity:1;"
         offset="0.36153847"
         id="stop41036" />
      <stop
         style="stop-color:#ed9d24;stop-opacity:1;"
         offset="0.57230771"
         id="stop56768" />
      <stop
         style="stop-color:#c35e14;stop-opacity:1;"
         offset="1"
         id="stop40506" />
    </linearGradient>
    <linearGradient
       inkscape:collect="always"
       id="linearGradient18975">
      <stop
         style="stop-color:#0e59b4;stop-opacity:1;"
         offset="0"
         id="stop18971" />
      <stop
         style="stop-color:#04a4e9;stop-opacity:1;"
         offset="1"
         id="stop18973" />
    </linearGradient>
    <linearGradient
       inkscape:collect="always"
       xlink:href="#linearGradient18975"
       id="linearGradient18977"
       x1="536.00903"
       y1="129.15535"
       x2="645.79462"
       y2="81.68959"
       gradientUnits="userSpaceOnUse"
       gradientTransform="rotate(-13.203797,299.2917,2060.9268)" />
    <linearGradient
       inkscape:collect="always"
       xlink:href="#linearGradient63011"
       id="linearGradient63013"
       x1="525.31329"
       y1="139.64436"
       x2="590.66504"
       y2="139.64436"
       gradientUnits="userSpaceOnUse"
       gradientTransform="rotate(-13.203797,299.2917,2060.9268)" />
    <linearGradient
       inkscape:collect="always"
       xlink:href="#linearGradient64641"
       id="linearGradient64643"
       x1="628.80823"
       y1="127.0274"
       x2="636.49316"
       y2="169.0685"
       gradientUnits="userSpaceOnUse"
       gradientTransform="rotate(-13.203797,299.2917,2060.9268)" />
    <linearGradient
       inkscape:collect="always"
       xlink:href="#linearGradient40508"
       id="linearGradient79228"
       gradientUnits="userSpaceOnUse"
       x1="425.85028"
       y1="92.249168"
       x2="557.6134"
       y2="114.85191"
       gradientTransform="rotate(-13.203797,299.2917,2060.9268)" />
  </defs>
  <g
     inkscape:label="Layer 1"
     inkscape:groupmode="layer"
     id="layer1">
    <path
       d="m 116.84901,126.26176 c -4.72019,0.68157 -12.49397,0.82963 -16.909925,0.32205 -1.305729,-0.15008 -5.015689,-0.32635 -8.244371,-0.3917 -3.228676,-0.0654 -5.926673,-0.15378 -5.995546,-0.19647 -0.217273,-0.1347 0.773739,-1.33592 3.573739,-4.33174 6.030093,-6.4518 16.162863,-14.15338 25.600933,-19.45841 4.70217,-2.643028 8.62391,-5.190942 10.29774,-6.690347 1.71162,-1.533243 2.71961,-3.374346 3.81802,-6.973589 1.73245,-5.676884 2.31099,-7.248706 3.50351,-9.518561 3.65734,-6.961448 8.43629,-11.822502 18.04435,-18.354345 1.41376,-0.961123 2.67835,-2.027907 2.93909,-2.479379 l 0.45766,-0.792425 -1.37379,0.463539 c -7.66511,2.586383 -10.48753,3.817915 -13.78394,6.014483 -7.0793,4.71732 -11.10634,10.01812 -14.36762,18.91212 -2.05343,5.600017 -2.8782,7.059614 -4.92455,8.715108 -1.54669,1.251267 -2.04111,1.503219 -4.08067,2.079502 -2.62667,0.742161 -4.10834,0.755542 -7.47591,0.0675 -6.92073,-1.41401 -6.9025,-1.412731 -13.56046,-0.951732 -4.244014,0.293856 -3.854404,0.04055 3.241722,-2.107648 5.205108,-1.575743 8.757878,-3.391234 10.465658,-5.348049 3.06576,-3.512823 0.97593,-9.070118 -4.06566,-10.811442 -0.56928,-0.196625 -2.43689,-0.598613 -4.150225,-0.893311 -1.713337,-0.294698 -3.292074,-0.597834 -3.508308,-0.673647 -0.219264,-0.07687 1.254203,-0.465793 3.331417,-0.879292 3.179446,-0.632967 4.012366,-0.890632 5.690866,-1.760513 2.5944,-1.344536 6.27588,-4.301545 8.54104,-6.860265 2.88168,-3.255143 3.13573,-3.369332 6.26901,-2.817696 1.26084,0.221981 2.15434,0.194723 3.45381,-0.105369 2.02004,-0.466747 2.86982,-1.077549 3.49207,-2.511119 0.57111,-1.315722 0.54005,-2.308365 -0.10745,-3.435224 -0.87306,-1.519377 -2.24309,-2.354201 -4.81782,-2.935716 -2.74075,-0.619025 -4.91268,-0.723926 -7.45664,-0.360159 -1.57048,0.224579 -1.74484,0.203271 -1.25905,-0.153833 0.83352,-0.612714 8.45645,-2.360986 10.68513,-2.450529 1.03653,-0.04166 4.55226,-0.173133 7.81273,-0.292151 3.26045,-0.119025 7.306,-0.337937 8.99008,-0.486474 5.15807,-0.454948 11.55016,-0.938649 12.55027,-0.949691 0.9295,-0.01026 0.98293,-0.06875 2.63573,-2.885061 1.28586,-2.191085 2.14356,-3.293048 3.60717,-4.63454 1.0561,-0.967975 1.95865,-1.874851 2.00568,-2.015278 0.33857,-1.011099 1.01472,0.449688 0.71963,1.554747 -0.0884,0.331097 -0.19943,1.358036 -0.24671,2.282104 -0.0473,0.92406 -0.33162,2.777257 -0.63184,4.118212 -0.30023,1.340957 -0.50688,2.608825 -0.4592,2.817497 0.16249,0.710116 3.55546,-5.579847 4.23209,-7.845053 0.17968,-0.601524 0.41342,-1.114977 0.51942,-1.140997 1.13046,-0.277554 -2.03268,11.152222 -3.60336,13.020335 -0.20458,0.243312 -0.33365,0.605652 -0.28683,0.805203 0.1465,0.624434 2.03103,1.782154 5.04905,3.101788 1.59885,0.699092 4.78023,2.478999 7.06974,3.955346 9.20317,5.934471 11.62691,7.208521 18.69281,9.825915 5.75798,2.132905 7.14163,3.297382 7.16896,6.033338 0.0181,1.81371 -0.70612,4.333478 -1.68771,5.871961 -1.17486,1.841366 -2.79874,2.890243 -5.42279,3.502595 -3.29058,0.767919 -5.6231,0.08283 -6.91722,-2.03163 -0.2837,-0.463523 -0.73847,-0.813631 -1.09683,-0.844399 -0.33671,-0.02891 -3.47198,0.529028 -6.96728,1.23986 -4.52959,0.921169 -6.90249,1.288426 -8.26073,1.278497 -2.66524,-0.01948 -6.02264,-0.850746 -6.95803,-1.722751 l -0.75386,-0.702765 -1.25813,2.168081 c -1.83802,3.167375 -1.97225,4.468471 -0.93952,9.106563 0.70933,3.185738 0.78767,3.936747 0.62075,5.95238 -0.10506,1.26867 -0.32035,2.83373 -0.47844,3.47793 -0.43024,1.75329 -2.36224,5.53948 -3.3271,6.52019 -0.9083,0.92322 -1.205,1.1056 -1.05114,0.6461 0.16163,-0.48265 -0.13802,-4.66384 -0.41235,-5.75382 l -0.25829,-1.02647 -0.0481,1.49757 c -0.0671,2.09157 -1.65494,9.04755 -2.01437,8.82473 -0.0682,-0.0422 -0.0641,-0.62437 0.009,-1.29362 0.17281,-1.58294 -0.68156,-7.31418 -1.42676,-9.57099 -0.32068,-0.97107 -1.11196,-2.61985 -1.75848,-3.663951 l -1.17547,-1.89835 0.40249,2.487363 c 0.99112,6.125048 -0.82441,10.092508 -6.89349,15.064328 -6.85104,5.61242 -16.77819,10.07557 -25.07532,11.27364 z"
       style="fill:url(#linearGradient18977);fill-opacity:1;stroke-width:1"
       id="path9643" />
    <path
       d="m 143.41398,122.35077 -1.98267,1.86148 c -5.2386,4.91843 -12.6575,8.75826 -20.37244,10.54423 -7.23251,1.67428 -12.08458,1.87419 -22.071622,0.90932 -11.65341,-1.12588 -12.343313,-1.13614 -16.271721,-0.24205 -3.434999,0.78177 -3.672237,0.66568 -1.667937,-0.81638 1.328744,-0.98252 4.883539,-2.54187 6.842165,-3.0014 3.272332,-0.76775 9.587521,-1.24001 13.564575,-1.01438 2.14972,0.12195 3.30515,0.12918 7.90417,0.0495 12.17484,-0.21095 20.946,-2.42617 29.88984,-7.5489 1.25178,-0.71697 2.45171,-1.42636 2.66652,-1.5764 0.24568,-0.17162 0.6423,-0.1168 1.06909,0.14781 l 0.67851,0.42063 c 0.12144,0.003 -0.12753,0.25535 -0.24848,0.26654 z"
       style="fill:url(#linearGradient63013);fill-opacity:1;stroke-width:1"
       id="path5316-6"
       sodipodi:nodetypes="cssssssssssscc" />
    <path
       d="m 176.89609,143.85492 c -1.70491,-4.21568 -3.8517,-11.5024 -3.7014,-12.56347 0.29876,-2.10923 2.27288,-3.74395 5.78793,-4.79289 2.1529,-0.64246 2.22568,-0.68766 2.20391,-1.36854 -0.13398,-4.18852 0.21713,-10.14863 0.85207,-14.46373 0.22496,-1.5288 0.35197,-2.815 0.28224,-2.85823 -0.0697,-0.0432 -0.61532,0.9867 -1.21243,2.28872 -2.02615,4.41806 -6.21239,10.54888 -10.66919,15.62524 -3.27227,3.72717 -5.46847,6.43575 -7.06107,8.70843 -0.83986,1.1985 -2.21156,2.96983 -3.04824,3.9363 -0.83668,0.96648 -1.83525,2.39739 -2.21903,3.17983 -0.81492,1.66139 0.26804,1.4126 -9.27686,2.13121 -3.37819,0.25433 -6.51709,0.49693 -6.97533,0.53911 l -0.83316,0.0767 0.33146,-2.54517 c 0.64734,-4.97085 1.17373,-6.20295 3.394,-7.94426 1.92677,-1.51112 3.3743,-1.75316 5.75321,-0.96195 3.8103,1.26726 4.5551,0.70904 12.55611,-9.41079 2.19154,-2.77191 5.9842,-6.87801 8.23008,-8.91022 1.63896,-1.48306 1.7782,-1.79949 0.46655,-1.06033 -0.45333,0.25546 -2.08895,1.0683 -3.63473,1.80631 -1.54579,0.73801 -3.25845,1.5628 -3.80591,1.83287 -2.1121,1.04192 -9.30901,3.54317 -12.0353,4.1828 -1.57222,0.36888 -4.20228,0.79508 -5.84456,0.9471 l -2.98597,0.27643 0.24849,-0.26655 2.96001,-1.78428 c 1.62802,-0.98136 4.46152,-2.81849 6.29669,-4.08253 1.83516,-1.26403 4.28578,-2.94411 5.44583,-3.73349 1.16005,-0.78938 3.85325,-2.63396 5.98489,-4.09906 4.30723,-2.96042 9.3252,-6.03085 13.53165,-8.27986 2.19774,-1.175039 3.3398,-1.622809 5.47523,-2.146725 2.41266,-0.591938 2.81637,-0.622046 3.81428,-0.284974 1.47751,0.499139 2.5071,1.744755 2.92918,3.543789 0.27903,1.18929 0.2254,1.82472 -0.33445,3.96198 -0.36672,1.40004 -0.81164,3.12984 -0.98871,3.84401 -0.18845,0.76013 -0.2269,2.23392 -0.0927,3.55473 0.21921,2.15794 0.5666,9.28581 0.57469,11.79154 0.002,0.65485 -0.11281,1.66465 -0.25539,2.24401 -0.30799,1.25155 -10.6463,17.56514 -11.30597,17.84054 -0.35722,0.14914 -0.53866,-0.0142 -0.83807,-0.75456 z"
       style="fill:url(#linearGradient64643);fill-opacity:1;stroke-width:1"
       id="path5316"
       sodipodi:nodetypes="ssssssssssssscssssssssssccsssssscsssssssss" />
    <path
       d="m 73.339226,126.31172 c -1.511645,-0.12461 -5.346486,0.16096 -9.339133,0.69544 -1.760348,0.23566 -1.780423,0.23021 -1.959222,-0.53187 -0.621377,-2.64847 0.198592,-6.71863 2.005575,-9.95531 2.83607,-5.07998 8.432214,-9.32319 16.31787,-12.37286 5.485222,-2.12134 15.90124,-3.96234 20.954254,-3.7036 0.98339,0.0503 2.15425,0.0901 2.60193,0.0884 0.72181,-0.003 0.4028,0.27699 -2.81742,2.47077 -1.997235,1.36064 -3.898007,2.64049 -4.223912,2.84412 -1.83944,1.14929 -8.232396,6.8356 -12.816222,11.39958 -1.272258,1.26675 -2.808899,2.79661 -3.414772,3.39969 -0.605864,0.60308 -1.960207,2.12492 -3.009649,3.38184 -1.049439,1.25694 -2.085371,2.31473 -2.302068,2.35063 -0.216678,0.0359 -1.115446,0.006 -1.997231,-0.0669 z m -42.369122,5.31982 c -4.956883,0.66882 -10.918677,-0.23089 -15.330852,-2.3136 -2.801708,-1.32251 -4.027305,-2.2343 -5.7108442,-4.24862 -1.5274959,-1.82761 -1.9684304,-3.16832 -1.3406783,-4.07655 0.6009135,-0.86939 1.7636835,-0.99407 4.3131185,-0.46247 3.951236,0.8239 7.606408,0.38401 10.844173,-1.30506 2.818591,-1.4704 5.319409,-3.79346 9.406295,-8.73777 5.443582,-6.58562 8.876,-9.28365 14.340758,-11.272524 6.841186,-2.489803 15.438796,-1.930421 21.506919,1.399284 l 1.667136,0.91479 -0.81951,0.4302 c -1.498999,0.7869 -9.001409,7.0717 -11.444274,9.58692 -1.324291,1.36352 -4.411046,4.62651 -6.859446,7.2511 -6.424731,6.88703 -9.788304,9.49967 -14.597122,11.3382 -2.743577,1.04894 -2.83939,1.07293 -5.975675,1.49609 z"
       style="fill:url(#linearGradient79228);fill-opacity:1;stroke-width:1"
       id="path56411" />
  </g>
</svg>
